<svg width="30" height="30" viewBox="0 0 30 30" fill="none" xmlns="http://www.w3.org/2000/svg">
<rect width="30" height="30" rx="8" fill="#157DFB"/>
<path d="M15 13.125V7.8125C15 7.3981 14.8354 7.00067 14.5424 6.70765C14.2493 6.41462 13.8519 6.25 13.4375 6.25C13.0231 6.25 12.6257 6.41462 12.3327 6.70765C12.0396 7.00067 11.875 7.3981 11.875 7.8125V17.2864L10.1619 14.3193C10.0594 14.1414 9.92287 13.9854 9.76007 13.8604C9.59727 13.7353 9.41142 13.6435 9.21314 13.5903C9.01486 13.5371 8.80803 13.5234 8.60448 13.5502C8.40093 13.577 8.20465 13.6436 8.02686 13.7462C7.84906 13.8489 7.69324 13.9855 7.56829 14.1484C7.44335 14.3113 7.35173 14.4973 7.29868 14.6956C7.24562 14.8939 7.23218 15.1008 7.2591 15.3043C7.28603 15.5078 7.3528 15.704 7.45559 15.8818C10 21.25 11.5482 23.125 15 23.125C15.8208 23.125 16.6335 22.9633 17.3918 22.6492C18.1501 22.3352 18.8391 21.8748 19.4194 21.2944C19.9998 20.7141 20.4602 20.0251 20.7743 19.2668C21.0883 18.5085 21.25 17.6958 21.25 16.875V13.75C21.25 13.3356 21.0854 12.9382 20.7924 12.6451C20.4993 12.3521 20.1019 12.1875 19.6875 12.1875C19.2731 12.1875 18.8757 12.3521 18.5827 12.6451C18.2896 12.9382 18.125 13.3356 18.125 13.75" stroke="white" stroke-width="1.25" stroke-linecap="round" stroke-linejoin="round"/>
<path d="M18.125 13.75V12.8125C18.125 12.3981 17.9604 12.0007 17.6674 11.7076C17.3743 11.4146 16.9769 11.25 16.5625 11.25C16.1481 11.25 15.7507 11.4146 15.4576 11.7076C15.1646 12.0007 15 12.3981 15 12.8125V13.125" stroke="white" stroke-width="1.25" stroke-linecap="round" stroke-linejoin="round"/>
</svg>
