<svg width="30" height="30" viewBox="0 0 30 30" fill="none" xmlns="http://www.w3.org/2000/svg">
<rect width="30" height="30" rx="8" fill="#157DFB"/>
<path fill-rule="evenodd" clip-rule="evenodd" d="M14.383 8.07553C14.5657 8.15127 14.7218 8.27948 14.8316 8.44395C14.9415 8.60842 15 8.80176 15 8.99953V20.9995C15 21.1973 14.9413 21.3906 14.8314 21.555C14.7215 21.7194 14.5654 21.8475 14.3827 21.9232C14.2 21.9989 13.9989 22.0187 13.805 21.9801C13.611 21.9415 13.4329 21.8463 13.293 21.7065L9.586 17.9995H7C6.73478 17.9995 6.48043 17.8942 6.29289 17.7066C6.10536 17.5191 6 17.2647 6 16.9995V12.9995C6 12.7343 6.10536 12.48 6.29289 12.2924C6.48043 12.1049 6.73478 11.9995 7 11.9995H9.586L13.293 8.29253C13.4328 8.1526 13.6111 8.05729 13.8051 8.01866C13.9991 7.98003 14.2002 7.99982 14.383 8.07553ZM19.657 7.92853C19.8445 7.74106 20.0988 7.63574 20.364 7.63574C20.6292 7.63574 20.8835 7.74106 21.071 7.92853C22.0008 8.85618 22.7382 9.95838 23.2409 11.1718C23.7435 12.3853 24.0015 13.6861 24 14.9995C24.0015 16.313 23.7435 17.6138 23.2409 18.8272C22.7382 20.0407 22.0008 21.1429 21.071 22.0705C20.8824 22.2527 20.6298 22.3535 20.3676 22.3512C20.1054 22.3489 19.8546 22.2438 19.6692 22.0583C19.4838 21.8729 19.3786 21.6221 19.3763 21.3599C19.374 21.0977 19.4748 20.8451 19.657 20.6565C20.4011 19.9146 20.9912 19.0328 21.3933 18.062C21.7955 17.0911 22.0016 16.0504 22 14.9995C22 12.7895 21.106 10.7915 19.657 9.34253C19.4695 9.155 19.3642 8.90069 19.3642 8.63553C19.3642 8.37036 19.4695 8.11606 19.657 7.92853ZM16.828 10.7565C16.9209 10.6636 17.0312 10.5898 17.1526 10.5395C17.274 10.4891 17.4041 10.4632 17.5355 10.4632C17.6669 10.4632 17.797 10.4891 17.9184 10.5395C18.0398 10.5898 18.1501 10.6636 18.243 10.7565C18.8009 11.3132 19.2433 11.9746 19.5448 12.7027C19.8463 13.4309 20.001 14.2114 20 14.9995C20.001 15.7876 19.8463 16.5682 19.5447 17.2963C19.2432 18.0244 18.8008 18.6858 18.243 19.2425C18.0554 19.4302 17.8009 19.5356 17.5355 19.5356C17.2701 19.5356 17.0156 19.4302 16.828 19.2425C16.6404 19.0549 16.5349 18.8004 16.5349 18.535C16.5349 18.2697 16.6404 18.0152 16.828 17.8275C17.2002 17.4567 17.4953 17.0159 17.6965 16.5306C17.8976 16.0452 18.0008 15.5249 18 14.9995C18.0008 14.4741 17.8977 13.9538 17.6965 13.4684C17.4954 12.9831 17.2002 12.5423 16.828 12.1715C16.735 12.0787 16.6613 11.9684 16.6109 11.847C16.5606 11.7256 16.5347 11.5954 16.5347 11.464C16.5347 11.3326 16.5606 11.2025 16.6109 11.0811C16.6613 10.9597 16.735 10.8494 16.828 10.7565Z" fill="white"/>
</svg>
