<svg width="30" height="30" viewBox="0 0 30 30" fill="none" xmlns="http://www.w3.org/2000/svg">
<rect width="30" height="30" rx="8" fill="#157DFB"/>
<path d="M23 8.00037C22.9999 7.85248 22.967 7.70645 22.9037 7.5728C22.8404 7.43915 22.7482 7.32121 22.6338 7.22748C22.5194 7.13375 22.3856 7.06655 22.2422 7.03074C22.0987 6.99493 21.949 6.99139 21.804 7.02037L11.804 9.02037C11.5774 9.06567 11.3735 9.18805 11.2269 9.36671C11.0803 9.54537 11.0001 9.76928 11 10.0004V19.1144C10.6722 19.038 10.3366 18.9997 10 19.0004C8.343 19.0004 7 19.8954 7 21.0004C7 22.1054 8.343 23.0004 10 23.0004C11.657 23.0004 13 22.1054 13 21.0004V12.8204L21 11.2204V17.1144C20.6722 17.038 20.3366 16.9997 20 17.0004C18.343 17.0004 17 17.8954 17 19.0004C17 20.1054 18.343 21.0004 20 21.0004C21.657 21.0004 23 20.1054 23 19.0004V8.00037Z" fill="white"/>
</svg>
