<svg width="30" height="30" viewBox="0 0 30 30" fill="none" xmlns="http://www.w3.org/2000/svg">
<rect width="30" height="30" rx="8" fill="#157DFB"/>
<path fill-rule="evenodd" clip-rule="evenodd" d="M16.3 6.04632C16.503 6.11016 16.6803 6.2371 16.8062 6.40868C16.9321 6.58025 17 6.78751 17 7.00032V12.0003H21C21.1829 12.0002 21.3623 12.0503 21.5187 12.1451C21.6752 12.24 21.8026 12.3759 21.8871 12.5381C21.9717 12.7003 22.0101 12.8826 21.9983 13.0651C21.9865 13.2476 21.9248 13.4234 21.82 13.5733L14.82 23.5733C14.6981 23.7479 14.5238 23.879 14.3223 23.9476C14.1208 24.0162 13.9027 24.0187 13.6997 23.9548C13.4966 23.8909 13.3193 23.7638 13.1934 23.5922C13.0676 23.4205 12.9998 23.2132 13 23.0003V18.0003H8.99996C8.81704 18.0004 8.6376 17.9503 8.48117 17.8555C8.32475 17.7607 8.19732 17.6248 8.11277 17.4626C8.02821 17.3004 7.98976 17.1181 8.00161 16.9356C8.01346 16.753 8.07514 16.5772 8.17996 16.4273L15.18 6.42732C15.302 6.25311 15.4763 6.12233 15.6778 6.054C15.8792 5.98566 16.0971 5.98332 16.3 6.04732V6.04632Z" fill="white"/>
</svg>
