<svg width="30" height="30" viewBox="0 0 30 30" fill="none" xmlns="http://www.w3.org/2000/svg">
<rect width="30" height="30" rx="8" fill="#157DFB"/>
<path fill-rule="evenodd" clip-rule="evenodd" d="M12 9C12 8.20435 12.3161 7.44129 12.8787 6.87868C13.4413 6.31607 14.2044 6 15 6C15.7956 6 16.5587 6.31607 17.1213 6.87868C17.6839 7.44129 18 8.20435 18 9V13C18 13.7956 17.6839 14.5587 17.1213 15.1213C16.5587 15.6839 15.7956 16 15 16C14.2044 16 13.4413 15.6839 12.8787 15.1213C12.3161 14.5587 12 13.7956 12 13V9ZM16 19.93C17.6662 19.6893 19.1899 18.8562 20.2918 17.5835C21.3938 16.3107 22.0002 14.6835 22 13C22 12.7348 21.8946 12.4804 21.7071 12.2929C21.5196 12.1054 21.2652 12 21 12C20.7348 12 20.4804 12.1054 20.2929 12.2929C20.1054 12.4804 20 12.7348 20 13C20 14.3261 19.4732 15.5979 18.5355 16.5355C17.5979 17.4732 16.3261 18 15 18C13.6739 18 12.4021 17.4732 11.4645 16.5355C10.5268 15.5979 10 14.3261 10 13C10 12.7348 9.89464 12.4804 9.70711 12.2929C9.51957 12.1054 9.26522 12 9 12C8.73478 12 8.48043 12.1054 8.29289 12.2929C8.10536 12.4804 8 12.7348 8 13C7.99978 14.6835 8.6062 16.3107 9.70815 17.5835C10.8101 18.8562 12.3338 19.6893 14 19.93V22H11C10.7348 22 10.4804 22.1054 10.2929 22.2929C10.1054 22.4804 10 22.7348 10 23C10 23.2652 10.1054 23.5196 10.2929 23.7071C10.4804 23.8946 10.7348 24 11 24H19C19.2652 24 19.5196 23.8946 19.7071 23.7071C19.8946 23.5196 20 23.2652 20 23C20 22.7348 19.8946 22.4804 19.7071 22.2929C19.5196 22.1054 19.2652 22 19 22H16V19.93Z" fill="white"/>
</svg>
