<svg width="30" height="30" viewBox="0 0 30 30" fill="none" xmlns="http://www.w3.org/2000/svg">
<rect width="30" height="30" rx="8" fill="#157DFB"/>
<path fill-rule="evenodd" clip-rule="evenodd" d="M22.7781 13.2218C18.4821 8.92575 11.5181 8.92575 7.22206 13.2218C7.03345 13.4039 6.78085 13.5047 6.51865 13.5024C6.25646 13.5001 6.00565 13.395 5.82024 13.2096C5.63483 13.0242 5.52966 12.7733 5.52738 12.5112C5.5251 12.249 5.6259 11.9964 5.80806 11.8078C10.8841 6.73075 19.1161 6.73075 24.1921 11.8078C24.3742 11.9964 24.475 12.249 24.4727 12.5112C24.4704 12.7733 24.3653 13.0242 24.1799 13.2096C23.9945 13.395 23.7437 13.5001 23.4815 13.5024C23.2193 13.5047 22.9667 13.4039 22.7781 13.2218ZM19.9501 16.0498C19.3 15.3997 18.5283 14.884 17.679 14.5322C16.8297 14.1803 15.9194 13.9992 15.0001 13.9992C14.0807 13.9992 13.1704 14.1803 12.3211 14.5322C11.4718 14.884 10.7001 15.3997 10.0501 16.0498C9.86145 16.2319 9.60885 16.3327 9.34665 16.3304C9.08446 16.3281 8.83365 16.223 8.64824 16.0376C8.46283 15.8522 8.35766 15.6013 8.35538 15.3392C8.3531 15.077 8.4539 14.8244 8.63606 14.6357C9.47178 13.8 10.4639 13.1371 11.5559 12.6848C12.6478 12.2325 13.8181 11.9997 15.0001 11.9997C16.182 11.9997 17.3523 12.2325 18.4442 12.6848C19.5362 13.1371 20.5283 13.8 21.3641 14.6357C21.5462 14.8244 21.647 15.077 21.6447 15.3392C21.6425 15.6013 21.5373 15.8522 21.3519 16.0376C21.1665 16.223 20.9157 16.3281 20.6535 16.3304C20.3913 16.3327 20.1387 16.2319 19.9501 16.0498ZM17.1201 18.8798C16.5575 18.3173 15.7945 18.0014 14.9991 18.0014C14.2036 18.0014 13.4406 18.3173 12.8781 18.8798C12.6904 19.0674 12.4359 19.1728 12.1706 19.1728C11.9052 19.1728 11.6507 19.0674 11.4631 18.8798C11.2754 18.6921 11.17 18.4376 11.17 18.1722C11.17 17.9069 11.2754 17.6524 11.4631 17.4648C11.9274 17.0003 12.4786 16.6319 13.0853 16.3805C13.692 16.1292 14.3423 15.9998 14.9991 15.9998C15.6558 15.9998 16.3061 16.1292 16.9128 16.3805C17.5195 16.6319 18.0707 17.0003 18.5351 17.4648C18.7227 17.6524 18.8281 17.9069 18.8281 18.1722C18.8281 18.4376 18.7227 18.6921 18.5351 18.8798C18.3474 19.0674 18.0929 19.1728 17.8276 19.1728C17.5622 19.1728 17.3077 19.0674 17.1201 18.8798ZM14.0001 20.9998C14.0001 20.7345 14.1054 20.4802 14.2929 20.2926C14.4805 20.1051 14.7348 19.9998 15.0001 19.9998H15.0101C15.2753 19.9998 15.5296 20.1051 15.7172 20.2926C15.9047 20.4802 16.0101 20.7345 16.0101 20.9998C16.0101 21.265 15.9047 21.5193 15.7172 21.7069C15.5296 21.8944 15.2753 21.9998 15.0101 21.9998H15.0001C14.7348 21.9998 14.4805 21.8944 14.2929 21.7069C14.1054 21.5193 14.0001 21.265 14.0001 20.9998Z" fill="white"/>
</svg>
