<svg width="30" height="30" viewBox="0 0 30 30" fill="none" xmlns="http://www.w3.org/2000/svg">
<rect width="30" height="30" rx="8" fill="#157DFB"/>
<path fill-rule="evenodd" clip-rule="evenodd" d="M15 7C15.2652 7 15.5196 7.10536 15.7071 7.29289C15.8946 7.48043 16 7.73478 16 8V9C16 9.26522 15.8946 9.51957 15.7071 9.70711C15.5196 9.89464 15.2652 10 15 10C14.7348 10 14.4804 9.89464 14.2929 9.70711C14.1054 9.51957 14 9.26522 14 9V8C14 7.73478 14.1054 7.48043 14.2929 7.29289C14.4804 7.10536 14.7348 7 15 7ZM19 15C19 16.0609 18.5786 17.0783 17.8284 17.8284C17.0783 18.5786 16.0609 19 15 19C13.9391 19 12.9217 18.5786 12.1716 17.8284C11.4214 17.0783 11 16.0609 11 15C11 13.9391 11.4214 12.9217 12.1716 12.1716C12.9217 11.4214 13.9391 11 15 11C16.0609 11 17.0783 11.4214 17.8284 12.1716C18.5786 12.9217 19 13.9391 19 15ZM18.536 19.95L19.243 20.657C19.4316 20.8392 19.6842 20.94 19.9464 20.9377C20.2086 20.9354 20.4594 20.8302 20.6448 20.6448C20.8302 20.4594 20.9354 20.2086 20.9377 19.9464C20.94 19.6842 20.8392 19.4316 20.657 19.243L19.95 18.536C19.7614 18.3538 19.5088 18.253 19.2466 18.2553C18.9844 18.2576 18.7336 18.3628 18.5482 18.5482C18.3628 18.7336 18.2576 18.9844 18.2553 19.2466C18.253 19.5088 18.3538 19.7614 18.536 19.95ZM20.656 9.343C20.8435 9.53053 20.9488 9.78484 20.9488 10.05C20.9488 10.3152 20.8435 10.5695 20.656 10.757L19.95 11.464C19.8578 11.5595 19.7474 11.6357 19.6254 11.6881C19.5034 11.7405 19.3722 11.7681 19.2394 11.7693C19.1066 11.7704 18.9749 11.7451 18.852 11.6948C18.7291 11.6445 18.6175 11.5703 18.5236 11.4764C18.4297 11.3825 18.3555 11.2709 18.3052 11.148C18.2549 11.0251 18.2296 10.8934 18.2307 10.7606C18.2319 10.6278 18.2595 10.4966 18.3119 10.3746C18.3643 10.2526 18.4405 10.1422 18.536 10.05L19.243 9.343C19.4305 9.15553 19.6848 9.05021 19.95 9.05021C20.2152 9.05021 20.4695 9.15553 20.657 9.343H20.656ZM22 16C22.2652 16 22.5196 15.8946 22.7071 15.7071C22.8946 15.5196 23 15.2652 23 15C23 14.7348 22.8946 14.4804 22.7071 14.2929C22.5196 14.1054 22.2652 14 22 14H21C20.7348 14 20.4804 14.1054 20.2929 14.2929C20.1054 14.4804 20 14.7348 20 15C20 15.2652 20.1054 15.5196 20.2929 15.7071C20.4804 15.8946 20.7348 16 21 16H22ZM15 20C15.2652 20 15.5196 20.1054 15.7071 20.2929C15.8946 20.4804 16 20.7348 16 21V22C16 22.2652 15.8946 22.5196 15.7071 22.7071C15.5196 22.8946 15.2652 23 15 23C14.7348 23 14.4804 22.8946 14.2929 22.7071C14.1054 22.5196 14 22.2652 14 22V21C14 20.7348 14.1054 20.4804 14.2929 20.2929C14.4804 20.1054 14.7348 20 15 20ZM10.05 11.464C10.1428 11.5569 10.2531 11.6306 10.3744 11.6809C10.4957 11.7312 10.6258 11.7572 10.7571 11.7572C10.8885 11.7572 11.0186 11.7314 11.1399 11.6812C11.2613 11.631 11.3716 11.5573 11.4645 11.4645C11.5574 11.3717 11.6311 11.2614 11.6814 11.1401C11.7317 11.0188 11.7577 10.8887 11.7577 10.7574C11.7577 10.626 11.7319 10.4959 11.6817 10.3746C11.6315 10.2532 11.5578 10.1429 11.465 10.05L10.757 9.343C10.5684 9.16084 10.3158 9.06005 10.0536 9.06233C9.7914 9.0646 9.54059 9.16977 9.35518 9.35518C9.16977 9.54059 9.0646 9.7914 9.06233 10.0536C9.06005 10.3158 9.16084 10.5684 9.343 10.757L10.05 11.464ZM11.464 19.95L10.757 20.657C10.5684 20.8392 10.3158 20.94 10.0536 20.9377C9.7914 20.9354 9.54059 20.8302 9.35518 20.6448C9.16977 20.4594 9.0646 20.2086 9.06233 19.9464C9.06005 19.6842 9.16084 19.4316 9.343 19.243L10.05 18.536C10.2386 18.3538 10.4912 18.253 10.7534 18.2553C11.0156 18.2576 11.2664 18.3628 11.4518 18.5482C11.6372 18.7336 11.7424 18.9844 11.7447 19.2466C11.747 19.5088 11.6462 19.7614 11.464 19.95ZM9 16C9.26522 16 9.51957 15.8946 9.70711 15.7071C9.89464 15.5196 10 15.2652 10 15C10 14.7348 9.89464 14.4804 9.70711 14.2929C9.51957 14.1054 9.26522 14 9 14H8C7.73478 14 7.48043 14.1054 7.29289 14.2929C7.10536 14.4804 7 14.7348 7 15C7 15.2652 7.10536 15.5196 7.29289 15.7071C7.48043 15.8946 7.73478 16 8 16H9Z" fill="white"/>
</svg>
