<svg width="30" height="30" viewBox="0 0 30 30" fill="none" xmlns="http://www.w3.org/2000/svg">
<rect width="30" height="30" rx="8" fill="#157DFB"/>
<path fill-rule="evenodd" clip-rule="evenodd" d="M10.0501 8.63556C10.2375 8.82309 10.3429 9.0774 10.3429 9.34256C10.3429 9.60772 10.2375 9.86203 10.0501 10.0496C9.39999 10.6996 8.88431 11.4713 8.53248 12.3206C8.18066 13.1699 7.99957 14.0802 7.99957 14.9996C7.99957 15.9189 8.18066 16.8292 8.53248 17.6785C8.88431 18.5278 9.39999 19.2995 10.0501 19.9496C10.1456 20.0418 10.2218 20.1522 10.2742 20.2742C10.3266 20.3962 10.3542 20.5274 10.3553 20.6602C10.3565 20.7929 10.3312 20.9246 10.2809 21.0475C10.2306 21.1704 10.1564 21.2821 10.0625 21.376C9.96858 21.4698 9.85693 21.5441 9.73403 21.5944C9.61114 21.6447 9.47946 21.67 9.34668 21.6688C9.2139 21.6677 9.08268 21.6401 8.96067 21.5877C8.83867 21.5353 8.72832 21.4591 8.63608 21.3636C7.80034 20.5278 7.13739 19.5357 6.68509 18.4437C6.2328 17.3518 6 16.1815 6 14.9996C6 13.8177 6.2328 12.6473 6.68509 11.5554C7.13739 10.4634 7.80034 9.47129 8.63608 8.63556C8.82361 8.44809 9.07791 8.34277 9.34308 8.34277C9.60824 8.34277 9.86255 8.44809 10.0501 8.63556ZM19.9501 8.63556C20.1376 8.44809 20.3919 8.34277 20.6571 8.34277C20.9222 8.34277 21.1766 8.44809 21.3641 8.63556C22.1998 9.47129 22.8628 10.4634 23.3151 11.5554C23.7674 12.6473 24.0002 13.8177 24.0002 14.9996C24.0002 16.1815 23.7674 17.3518 23.3151 18.4437C22.8628 19.5357 22.1998 20.5278 21.3641 21.3636C21.2718 21.4591 21.1615 21.5353 21.0395 21.5877C20.9175 21.6401 20.7863 21.6677 20.6535 21.6688C20.5207 21.67 20.389 21.6447 20.2661 21.5944C20.1432 21.5441 20.0316 21.4698 19.9377 21.376C19.8438 21.2821 19.7695 21.1704 19.7193 21.0475C19.669 20.9246 19.6437 20.7929 19.6448 20.6602C19.646 20.5274 19.6736 20.3962 19.726 20.2742C19.7784 20.1522 19.8546 20.0418 19.9501 19.9496C20.6002 19.2995 21.1158 18.5278 21.4677 17.6785C21.8195 16.8292 22.0006 15.9189 22.0006 14.9996C22.0006 14.0802 21.8195 13.1699 21.4677 12.3206C21.1158 11.4713 20.6002 10.6996 19.9501 10.0496C19.7626 9.86203 19.6573 9.60772 19.6573 9.34256C19.6573 9.0774 19.7626 8.82309 19.9501 8.63556ZM12.8791 11.4636C13.0665 11.6511 13.1719 11.9054 13.1719 12.1706C13.1719 12.4357 13.0665 12.69 12.8791 12.8776C12.6004 13.1561 12.3794 13.4869 12.2286 13.8509C12.0778 14.2149 12.0002 14.6051 12.0002 14.9991C12.0002 15.3931 12.0778 15.7832 12.2286 16.1472C12.3794 16.5112 12.6004 16.842 12.8791 17.1206C12.9719 17.2135 13.0456 17.3238 13.0958 17.4451C13.146 17.5665 13.1718 17.6966 13.1718 17.8279C13.1717 17.9593 13.1458 18.0893 13.0955 18.2106C13.0452 18.332 12.9715 18.4422 12.8786 18.5351C12.7857 18.6279 12.6754 18.7015 12.554 18.7518C12.4326 18.802 12.3026 18.8278 12.1712 18.8278C12.0399 18.8277 11.9098 18.8018 11.7885 18.7515C11.6672 18.7012 11.5569 18.6275 11.4641 18.5346C10.5267 17.5969 10.0001 16.3254 10.0001 14.9996C10.0001 13.6737 10.5267 12.4022 11.4641 11.4646C11.557 11.3716 11.6672 11.2978 11.7886 11.2475C11.91 11.1972 12.0402 11.1713 12.1716 11.1713C12.303 11.1713 12.4331 11.1972 12.5545 11.2475C12.6759 11.2978 12.7862 11.3716 12.8791 11.4646V11.4636ZM17.1211 11.4636C17.214 11.3706 17.3242 11.2968 17.4456 11.2465C17.567 11.1962 17.6972 11.1703 17.8286 11.1703C17.96 11.1703 18.0901 11.1962 18.2115 11.2465C18.3329 11.2968 18.4432 11.3706 18.5361 11.4636C19.0005 11.9279 19.3689 12.4791 19.6203 13.0858C19.8716 13.6926 20.001 14.3428 20.001 14.9996C20.001 15.6563 19.8716 16.3066 19.6203 16.9133C19.3689 17.52 19.0005 18.0713 18.5361 18.5356C18.3484 18.7232 18.0939 18.8286 17.8286 18.8286C17.5632 18.8286 17.3087 18.7232 17.1211 18.5356C16.9334 18.3479 16.828 18.0934 16.828 17.8281C16.828 17.5627 16.9334 17.3082 17.1211 17.1206C17.6835 16.558 17.9994 15.7951 17.9994 14.9996C17.9994 14.2041 17.6835 13.4411 17.1211 12.8786C17.0281 12.7857 16.9543 12.6754 16.904 12.554C16.8537 12.4326 16.8278 12.3025 16.8278 12.1711C16.8278 12.0396 16.8537 11.9095 16.904 11.7881C16.9543 11.6667 17.0281 11.5564 17.1211 11.4636ZM15.0001 13.9996C15.2653 13.9996 15.5196 14.1049 15.7072 14.2925C15.8947 14.48 16.0001 14.7343 16.0001 14.9996V15.0096C16.0001 15.2748 15.8947 15.5291 15.7072 15.7167C15.5196 15.9042 15.2653 16.0096 15.0001 16.0096C14.7349 16.0096 14.4805 15.9042 14.293 15.7167C14.1054 15.5291 14.0001 15.2748 14.0001 15.0096V14.9996C14.0001 14.7343 14.1054 14.48 14.293 14.2925C14.4805 14.1049 14.7349 13.9996 15.0001 13.9996Z" fill="white"/>
</svg>
