<?xml version="1.0" standalone="no"?>
<!DOCTYPE svg PUBLIC "-//W3C//DTD SVG 20010904//EN"
 "http://www.w3.org/TR/2001/REC-SVG-20010904/DTD/svg10.dtd">
<svg version="1.0" xmlns="http://www.w3.org/2000/svg"
 width="1380.000000pt" height="1380.000000pt" viewBox="0 0 1380.000000 1380.000000"
 preserveAspectRatio="xMidYMid meet">
<metadata>
Created by potrace 1.11, written by Peter Selinger 2001-2013
</metadata>
<g transform="translate(0.000000,1380.000000) scale(0.100000,-0.100000)"
fill="#000000" stroke="none">
<path d="M702 10637 l-32 -33 0 -3540 0 -3540 33 -32 33 -32 457 0 457 0 0
125 0 125 -365 0 -365 0 0 3355 0 3355 555 0 555 0 0 125 0 125 -648 0 -648 0
-32 -33z"/>
<path d="M11340 10545 l0 -125 625 0 625 0 0 -3355 0 -3355 -4410 0 -4410 0 0
-125 0 -125 4503 0 4503 0 32 33 32 33 0 3540 0 3540 -33 32 -33 32 -717 0
-717 0 0 -125z"/>
<path d="M4285 10204 c-427 -62 -737 -220 -1030 -526 -274 -285 -435 -631
-474 -1017 -7 -69 -11 -792 -11 -2177 l0 -2074 160 0 c142 0 165 2 205 21 54
25 111 89 125 138 6 23 10 424 10 1087 0 1048 0 1051 21 1078 l20 26 562 0
c796 1 933 12 1187 96 492 163 913 580 1084 1072 66 191 81 295 81 567 -1 268
-12 349 -81 554 -166 499 -580 913 -1076 1075 -199 65 -289 79 -533 82 -121 1
-233 0 -250 -2z m431 -499 c247 -43 465 -158 653 -346 240 -239 361 -529 361
-864 0 -343 -116 -623 -359 -866 -152 -152 -287 -238 -469 -299 -181 -60 -198
-62 -892 -67 -688 -5 -701 -4 -727 47 -16 32 -18 1125 -2 1281 24 239 107 450
248 633 63 80 199 214 281 275 134 100 309 176 470 206 104 18 327 18 436 0z"/>
<path d="M2017 8946 c-87 -31 -155 -99 -188 -187 -16 -42 -19 -79 -19 -255 l0
-205 213 3 c200 3 215 4 257 27 61 32 126 96 158 156 24 44 27 61 27 145 0 76
-4 104 -21 141 -32 69 -91 128 -159 161 -52 24 -72 28 -145 28 -47 -1 -102 -7
-123 -14z"/>
<path d="M1852 7817 l-22 -23 0 -1651 c0 -1461 2 -1653 15 -1667 23 -22 82
-28 262 -24 154 3 164 4 185 26 l23 23 3 1617 c1 889 0 1632 -3 1650 -3 18
-15 42 -26 53 -18 18 -34 19 -217 19 -195 0 -199 0 -220 -23z"/>
<path d="M7900 7769 c-348 -69 -671 -258 -912 -533 -197 -225 -320 -469 -380
-753 -23 -107 -23 -114 -26 -1049 l-3 -940 22 -20 c19 -17 40 -19 182 -22 173
-4 234 1 263 23 18 13 19 43 19 912 0 820 2 905 18 979 55 253 170 459 354
635 175 167 383 273 613 313 56 10 88 20 97 32 18 24 19 414 1 432 -18 18
-137 13 -248 -9z"/>
<path d="M9956 7774 c-363 -56 -689 -234 -955 -521 -206 -222 -339 -474 -400
-758 -74 -341 -41 -726 89 -1031 184 -432 579 -798 1014 -939 185 -60 260 -69
531 -69 221 0 262 2 351 22 215 47 430 140 597 259 172 123 394 361 501 540
169 283 248 636 218 980 -30 344 -123 590 -323 858 -76 102 -261 286 -361 360
-221 163 -476 267 -741 304 -107 15 -412 12 -521 -5z m565 -492 c307 -82 550
-259 726 -529 255 -391 239 -950 -40 -1323 -184 -247 -400 -396 -686 -472
-110 -29 -372 -36 -500 -14 -367 64 -702 321 -871 670 -114 233 -143 484 -89
757 45 229 140 401 323 585 187 188 354 280 604 335 121 26 419 21 533 -9z"/>
</g>
</svg>
