<svg width="58" height="44" viewBox="0 0 58 44" fill="none" xmlns="http://www.w3.org/2000/svg">
<path d="M7.58008 11.668H6.02148V10.1094C6.02148 9.66406 6.16992 9.29297 6.4668 8.99609C6.76367 8.69922 7.13477 8.55078 7.58008 8.55078C8.00065 8.55078 8.37174 8.69922 8.69336 8.99609C8.99023 9.31771 9.13867 9.6888 9.13867 10.1094C9.13867 10.5299 8.99023 10.8887 8.69336 11.1855C8.39648 11.5072 8.02539 11.668 7.58008 11.668ZM6.4668 29.8887C6.36784 29.8887 6.28125 29.8639 6.20703 29.8145C6.15755 29.7402 6.13281 29.6536 6.13281 29.5547V14.2285C6.13281 14.1296 6.16992 14.043 6.24414 13.9688C6.31836 13.8945 6.40495 13.8574 6.50391 13.8574H8.02539C8.12435 13.8574 8.21094 13.8945 8.28516 13.9688C8.35938 14.043 8.39648 14.1296 8.39648 14.2285V29.5547C8.39648 29.6536 8.35938 29.7402 8.28516 29.8145C8.23568 29.8639 8.16146 29.8887 8.0625 29.8887H6.4668ZM18.3329 4.87695C16.7248 4.90169 15.3641 5.50781 14.2509 6.69531C13.1128 7.85807 12.5438 9.24349 12.5438 10.8516V16.2324C12.5438 16.3314 12.5809 16.418 12.6552 16.4922C12.7294 16.5664 12.8283 16.6035 12.952 16.6035H18.4071C20.0399 16.6035 21.4253 16.0345 22.5634 14.8965C23.7014 13.7585 24.2704 12.373 24.2704 10.7402C24.2704 9.10742 23.689 7.72201 22.5262 6.58398C21.3882 5.44596 20.0028 4.87695 18.37 4.87695H18.3329ZM26.6083 10.8516C26.5835 13.1029 25.7548 15.0202 24.122 16.6035C22.5139 18.1621 20.5842 18.9414 18.3329 18.9414H12.9149C12.816 18.9414 12.7294 18.9785 12.6552 19.0527C12.5809 19.1022 12.5438 19.1888 12.5438 19.3125V28.9609C12.5438 29.2826 12.4449 29.5547 12.247 29.7773C12.049 29.9753 11.8016 30.099 11.5048 30.1484H10.2059V10.8516C10.2059 8.60026 10.9976 6.6582 12.5809 5.02539C14.1643 3.41732 16.0816 2.60091 18.3329 2.57617H18.4071C19.174 2.57617 19.9162 2.67513 20.6337 2.87305C21.3759 3.07096 22.0686 3.36784 22.7118 3.76367C23.8993 4.50586 24.8518 5.49544 25.5692 6.73242C26.2619 7.9694 26.6083 9.31771 26.6083 10.7773V10.8516ZM30.199 27.6621V29.5547C30.199 29.6536 30.1619 29.7402 30.0877 29.8145C30.0134 29.8887 29.9268 29.9258 29.8279 29.9258H28.2693C28.1703 29.9258 28.0837 29.8887 28.0095 29.8145C27.9353 29.7402 27.8982 29.6536 27.8982 29.5547V21.9473C27.8982 19.8939 28.5785 18.125 29.9392 16.6406C31.3246 15.1315 33.0069 14.278 34.9861 14.0801H35.0603C35.1345 14.0801 35.2087 14.1048 35.283 14.1543C35.3572 14.2285 35.3943 14.3151 35.3943 14.4141V15.9727C35.3943 16.0469 35.3696 16.1211 35.3201 16.1953C35.2459 16.2695 35.1593 16.3066 35.0603 16.3066C33.6749 16.5046 32.5121 17.1354 31.572 18.1992C30.6319 19.263 30.1619 20.5124 30.1619 21.9473V27.6621H30.199ZM44.8483 29.9629C42.6712 29.9629 40.8034 29.1836 39.2448 27.625C37.7109 26.0664 36.944 24.1986 36.944 22.0215C36.944 19.8197 37.7109 17.9518 39.2448 16.418C40.8034 14.8594 42.6712 14.0801 44.8483 14.0801C47.0254 14.0801 48.8932 14.8594 50.4518 16.418C52.0104 17.9766 52.7897 19.8444 52.7897 22.0215C52.7897 24.1986 52.0104 26.0664 50.4518 27.625C48.9179 29.1836 47.0501 29.9629 44.8483 29.9629ZM44.8483 16.3066C43.2649 16.3066 41.9166 16.8633 40.8034 17.9766C39.6901 19.0898 39.1334 20.4382 39.1334 22.0215C39.1334 23.5801 39.7024 24.9284 40.8405 26.0664C41.9538 27.1797 43.2897 27.7363 44.8483 27.7363C46.4316 27.7363 47.7799 27.1797 48.8932 26.0664C50.0065 24.9284 50.5631 23.5801 50.5631 22.0215C50.5631 20.4382 50.0065 19.0898 48.8932 17.9766C47.7799 16.8633 46.4316 16.3066 44.8483 16.3066Z" fill="white"/>
<path d="M6.5 1H1V34H6.5M14.5 34H56.5V1.16264H50.5" stroke="white" stroke-width="1.5" stroke-linejoin="bevel"/>
</svg>
